<svg version="1.1" id="Layer_1" xmlns="http://www.w3.org/2000/svg" xmlns:xlink="http://www.w3.org/1999/xlink" width="1300" height="auto" viewBox="0 0 1600 900" xml:space="preserve">
<path fill="#FFFFFF" opacity="1.000000" stroke="none" 
	d="
M688.969116,411.000427 
	C688.989441,421.994476 689.026672,432.488831 688.982605,442.982849 
	C688.926941,456.238831 682.066711,464.913239 670.736938,471.051788 
	C658.011475,477.946564 643.289795,471.264771 635.549622,460.388153 
	C631.440918,454.614532 630.071472,448.615204 630.061584,442.064941 
	C629.975952,385.414368 629.866516,328.763000 630.124939,272.113495 
	C630.177002,260.700378 633.734619,250.115753 639.694336,240.011017 
	C643.179749,234.101349 646.516602,228.338028 651.162354,223.271790 
	C659.660645,214.004364 669.582520,207.015274 681.143005,201.890381 
	C694.156616,196.121292 707.711548,195.134995 721.422302,196.214859 
	C728.541199,196.775543 735.552368,199.277954 742.500977,201.287720 
	C752.128723,204.072388 760.120117,209.690506 767.222839,216.314728 
	C774.499451,212.583313 781.630920,208.292816 789.257874,205.240250 
	C794.255066,203.240204 799.967285,202.208191 805.362427,202.196228 
	C815.709106,202.173325 826.149780,202.517609 836.384399,203.924850 
	C851.443909,205.995483 863.063477,215.112762 874.820923,224.072922 
	C884.246399,231.255859 889.999390,240.921402 895.787231,250.700668 
	C897.382629,253.396240 897.888123,256.727264 898.964844,259.741272 
	C901.578674,267.058075 904.353027,274.320404 906.805603,281.690247 
	C907.609680,284.106506 907.946228,286.785736 907.949280,289.345367 
	C908.011719,341.838593 907.914429,394.332184 908.066833,446.825043 
	C908.094727,456.421051 903.285767,463.490173 896.820190,469.267487 
	C887.096924,477.955811 875.209595,478.656769 864.041016,473.184998 
	C853.492554,468.016998 846.980713,458.958984 846.989502,446.346924 
	C847.023804,397.186737 847.753906,348.007874 846.527039,298.878326 
	C846.182068,285.065704 840.476929,271.201477 826.062927,263.935883 
	C817.211914,259.474396 800.359314,264.287811 795.544434,273.110046 
	C794.829956,274.419220 795.015076,276.294037 795.014343,277.907257 
	C794.990417,331.567108 795.074341,385.227112 794.948853,438.886658 
	C794.908325,456.241211 777.748108,469.391937 760.402710,465.605682 
	C747.993225,462.896851 739.687561,455.515045 737.978149,442.178772 
	C737.401489,437.679626 736.228577,433.191437 736.215576,428.695618 
	C736.076721,380.709015 736.232849,332.721344 736.008057,284.735352 
	C735.963379,275.199005 733.438049,266.346710 725.124084,260.026276 
	C719.941589,256.086487 706.362915,256.170074 700.863525,259.819489 
	C692.754456,265.200623 691.015442,273.344727 690.090149,281.847046 
	C689.289673,289.202423 689.024841,296.645386 689.002563,304.051086 
	C688.895752,339.533966 688.951782,375.017334 688.969116,411.000427 
z"/>
<path fill="#FFFFFF" opacity="1.000000" stroke="none" 
	d="
M1045.973877,201.005890 
	C1052.573730,203.153625 1058.994629,204.771576 1064.840454,207.584564 
	C1071.523560,210.800415 1077.695312,215.079056 1084.730103,219.278473 
	C1089.056641,216.897964 1094.512817,213.764008 1100.102173,210.889481 
	C1102.167603,209.827316 1104.499146,209.118408 1106.791748,208.691147 
	C1115.698120,207.031311 1124.685547,204.094025 1133.551880,204.386902 
	C1143.588013,204.718430 1154.017578,206.729324 1163.384399,210.329895 
	C1175.371460,214.937668 1186.401978,222.175751 1195.571045,231.333374 
	C1203.675659,239.427643 1210.149658,248.928665 1213.990234,259.969757 
	C1217.164795,269.096558 1220.543335,278.152405 1223.700317,287.285065 
	C1224.168945,288.640533 1223.985718,290.245667 1223.985962,291.735260 
	C1223.997559,344.891083 1223.863770,398.047516 1224.097412,451.202301 
	C1224.148193,462.749969 1210.607666,478.147491 1198.978271,479.305908 
	C1190.544434,480.146027 1182.944946,479.156799 1176.438110,474.514526 
	C1168.151611,468.602539 1162.981445,460.345428 1162.988525,449.567932 
	C1163.019897,401.077881 1163.075439,352.587524 1162.875610,304.098297 
	C1162.858521,299.935120 1161.354492,295.669006 1159.976562,291.643982 
	C1157.405640,284.134827 1155.150391,276.607697 1148.227417,271.252197 
	C1142.654785,266.941376 1136.592041,265.854980 1130.226562,266.196136 
	C1126.378052,266.402435 1122.382324,267.970886 1118.887817,269.771545 
	C1112.624023,272.999298 1110.755371,278.277374 1110.804932,285.577759 
	C1111.159424,337.731384 1110.936768,389.888641 1111.043457,442.044464 
	C1111.063232,451.723694 1106.518921,458.754700 1099.194580,464.207581 
	C1090.980225,470.323181 1081.678589,471.957031 1072.192505,467.932251 
	C1062.463867,463.804565 1054.457397,457.241455 1054.127930,445.717743 
	C1053.406494,420.488770 1053.213867,395.241547 1053.062012,370.000275 
	C1052.897583,342.676910 1053.511963,315.338196 1052.746216,288.035309 
	C1052.497070,279.149780 1049.749756,269.949402 1042.087891,263.742645 
	C1040.568115,262.511414 1038.239868,262.093384 1036.207153,261.708801 
	C1019.268555,258.503998 1009.577148,263.648956 1007.131775,280.238831 
	C1002.265747,313.251282 1005.849548,346.535034 1005.082153,379.690948 
	C1004.554077,402.506866 1004.867004,425.345764 1005.030334,448.172760 
	C1005.113647,459.822205 994.017395,473.252502 982.550598,476.079529 
	C971.128479,478.895599 956.592346,473.687195 950.159424,461.842651 
	C947.414673,456.788971 946.130615,451.760590 946.118042,446.413757 
	C945.982300,388.760925 945.901123,331.107208 946.112610,273.454895 
	C946.150452,263.131287 950.601746,253.826843 954.993835,244.560760 
	C958.970764,236.170532 964.488586,229.020004 970.991638,222.720673 
	C982.341675,211.726074 995.505493,203.566376 1011.426575,201.104401 
	C1019.116821,199.915207 1026.945312,199.382782 1034.729370,199.142654 
	C1038.310791,199.032181 1041.935791,200.339569 1045.973877,201.005890 
z"/>
<path fill="#FFFFFF" opacity="1.000000" stroke="none" 
	d="
M555.940369,313.001221 
	C563.593933,312.651428 570.446411,313.767853 576.453552,317.915955 
	C583.010559,322.443787 587.608398,328.038361 589.180420,336.449799 
	C591.250122,347.523834 587.263855,356.390747 579.687988,363.079620 
	C575.358032,366.902557 568.479065,369.494904 562.654846,369.677673 
	C539.353699,370.408844 516.016052,369.979553 492.343658,369.979553 
	C492.343658,386.161255 492.343658,402.234375 492.343658,419.005402 
	C493.831909,419.005402 495.580322,419.005371 497.328705,419.005371 
	C524.658020,419.005310 551.987305,418.984558 579.316650,419.016083 
	C589.480164,419.027832 597.887329,422.425934 603.816772,431.242157 
	C610.615845,441.351257 610.775024,452.006439 604.419373,461.618225 
	C598.848755,470.042847 590.313965,475.126434 579.295105,475.066895 
	C544.301270,474.877869 509.305756,474.997620 474.310883,474.998169 
	C468.646729,474.998260 462.982574,475.012665 457.318451,474.996033 
	C448.321198,474.969604 435.743805,459.606873 435.816681,450.258698 
	C436.226013,397.769714 436.007416,345.275818 436.003845,292.783600 
	C436.002625,274.786255 436.449432,256.774170 435.855682,238.796402 
	C435.419098,225.576599 450.104126,211.632751 462.939514,211.817093 
	C499.759857,212.345917 536.592712,211.984482 573.420654,212.011978 
	C591.106628,212.025177 604.226379,229.676926 598.920959,247.334473 
	C596.096741,256.733795 589.515076,262.668304 580.984375,266.142059 
	C576.757141,267.863434 571.627136,267.550903 566.887146,267.782928 
	C561.180298,268.062286 555.453247,268.019043 549.735962,267.975952 
	C542.544189,267.921753 535.353638,267.629059 528.162231,267.617706 
	C520.160828,267.605072 512.158264,267.907959 504.157990,267.844513 
	C500.271301,267.813690 496.388733,267.260895 492.244171,266.923218 
	C492.244171,282.212830 492.244171,297.304718 492.244171,313.001221 
	C513.270325,313.001221 534.360168,313.001221 555.940369,313.001221 
z"/>
<path fill="#FFFFFF" opacity="1.000000" stroke="none" 
	d="
M1394.266113,408.236694 
	C1389.363647,418.187347 1384.798706,427.892609 1380.092896,437.529205 
	C1375.535034,446.863037 1370.731689,456.077545 1366.222534,465.434326 
	C1361.708252,474.801697 1357.390503,484.264618 1353.053223,493.716248 
	C1350.368896,499.566345 1345.758057,503.446838 1340.627075,507.108276 
	C1331.305176,513.760437 1321.036255,513.474060 1310.572144,511.895203 
	C1299.509277,510.226013 1286.068481,495.736450 1286.258423,484.522522 
	C1286.358521,478.616699 1288.435059,472.468506 1290.801392,466.935242 
	C1295.505493,455.935699 1300.933838,445.239655 1306.240967,434.506195 
	C1310.366821,426.161926 1314.921631,418.028534 1318.997314,409.660919 
	C1323.828003,399.743011 1328.312134,389.656891 1333.026489,379.681458 
	C1334.538696,376.481476 1336.471680,373.475372 1337.903076,370.243591 
	C1339.091553,367.560364 1339.543091,365.108246 1336.112305,363.043457 
	C1327.364624,357.778900 1323.118652,348.490387 1317.430054,340.614655 
	C1307.175903,326.418030 1297.663940,311.687744 1287.687744,297.287231 
	C1279.585571,285.592041 1271.197754,274.095001 1263.057617,262.425720 
	C1259.565796,257.419983 1255.362427,252.578476 1253.287598,246.991913 
	C1249.927979,237.945892 1251.386963,228.998108 1258.096558,221.447098 
	C1265.632690,212.965942 1275.283203,207.968750 1286.404785,208.233215 
	C1300.327515,208.564301 1311.481934,214.878128 1319.120605,227.201584 
	C1324.470825,235.833252 1330.817749,243.844574 1336.660889,252.174149 
	C1342.122192,259.959595 1347.576050,267.752136 1352.904785,275.628418 
	C1358.605469,284.054596 1364.156006,292.582367 1370.443970,302.080872 
	C1374.647461,292.943207 1378.146362,284.821167 1382.076538,276.913605 
	C1388.102417,264.789703 1394.399902,252.800262 1400.635986,240.781631 
	C1402.902588,236.413391 1405.037964,231.932861 1407.776733,227.869843 
	C1409.524902,225.276596 1411.903809,222.633713 1414.628296,221.251404 
	C1431.049194,212.919876 1441.214355,211.993179 1458.110718,223.010483 
	C1471.911499,232.009430 1472.419312,248.957489 1464.793457,261.889130 
	C1459.524902,270.823303 1455.595703,280.543671 1450.999268,289.878845 
	C1446.379272,299.261810 1441.549438,308.543274 1437.041382,317.978912 
	C1432.545776,327.388367 1428.431763,336.979706 1423.972046,346.406860 
	C1419.594971,355.658813 1414.906982,364.763611 1410.522095,374.011993 
	C1407.776245,379.803223 1405.451416,385.793549 1402.729858,391.597076 
	C1400.140991,397.117706 1397.281982,402.511658 1394.266113,408.236694 
z"/>
<path fill="#FFFFFF" opacity="1.000000" stroke="none" 
	d="
M322.000000,478.996399 
	C294.671356,478.995361 267.839661,478.764648 241.015808,479.122498 
	C232.077805,479.241699 223.465775,477.455902 216.207642,473.246674 
	C207.208420,468.027710 200.059235,460.037079 200.047638,448.468933 
	C199.967087,368.147034 199.954407,287.824982 200.084610,207.503235 
	C200.098495,198.931107 204.680847,192.452393 211.177368,186.906952 
	C223.006119,176.809921 235.916138,176.815994 248.806564,183.273041 
	C253.704575,185.726547 257.207153,191.178467 261.006714,195.557938 
	C265.682434,200.947281 265.913696,207.831421 265.925812,214.424820 
	C266.043640,278.582153 265.996948,342.739838 265.997131,406.897400 
	C265.997131,408.717163 265.997101,410.536926 265.997101,412.104889 
	C272.989746,412.104889 279.797058,412.115906 286.604309,412.102509 
	C299.474854,412.077179 312.345398,412.022522 325.215973,412.008179 
	C340.381348,411.991302 355.559204,411.615997 370.708893,412.103455 
	C389.338409,412.702881 400.385620,419.700989 406.511932,438.450226 
	C409.221649,446.743134 407.132111,455.735626 401.925110,463.273407 
	C396.533447,471.078491 388.996552,476.022125 379.901062,478.551270 
	C378.344604,478.984070 376.631256,478.960907 374.990051,478.963928 
	C357.493408,478.996155 339.996704,478.991119 322.000000,478.996399 
z"/>
<path fill="#FFFFFF" opacity="1.000000" stroke="none" 
	d="
M1157.872681,631.985229 
	C1173.742920,639.739258 1181.050781,652.637695 1183.131226,669.474182 
	C1184.783813,682.847778 1184.161743,695.706543 1179.286133,708.374939 
	C1174.091797,721.871704 1164.163330,730.254456 1150.604370,733.529907 
	C1138.770264,736.388611 1126.418335,736.465820 1114.626465,732.765747 
	C1098.640869,727.749695 1089.827271,715.835510 1086.062622,700.055481 
	C1082.269897,684.158508 1082.906006,668.261475 1089.135620,653.094849 
	C1094.325073,640.460571 1104.399658,632.197693 1117.541504,629.445435 
	C1130.816895,626.665283 1144.482788,626.170898 1157.872681,631.985229 
M1108.996216,672.435608 
	C1108.997437,678.917419 1108.541016,685.439331 1109.103882,691.872009 
	C1110.019287,702.332886 1114.830933,712.703125 1128.248047,715.564636 
	C1140.277344,718.130127 1152.172363,713.451965 1157.010132,700.454285 
	C1160.950806,689.866516 1161.070801,678.898376 1158.723267,668.189697 
	C1157.505249,662.633362 1154.765625,656.385803 1150.682129,652.702698 
	C1142.967407,645.744385 1132.997559,644.857544 1123.415039,649.033447 
	C1113.880127,653.188660 1109.997314,661.589294 1108.996216,672.435608 
z"/>
<path fill="#FFFFFF" opacity="1.000000" stroke="none" 
	d="
M902.813965,730.986084 
	C896.849182,732.001160 891.321777,733.668457 885.742798,733.863953 
	C873.306519,734.299683 860.844482,734.000000 848.198608,734.000000 
	C848.198608,699.204590 848.198608,664.805481 848.198608,631.001099 
	C864.580017,631.001099 880.992432,629.304138 896.896912,631.422058 
	C917.707397,634.193298 931.190613,649.349426 934.122864,670.461548 
	C935.523804,680.547302 935.186096,690.331360 932.462769,700.030151 
	C928.146118,715.402954 918.108093,725.508789 902.813965,730.986084 
M907.980835,699.205200 
	C911.973328,689.142334 912.021790,678.707397 909.615906,668.460205 
	C907.885376,661.089783 903.541748,655.240662 896.259521,651.548157 
	C888.015869,647.367981 879.605713,649.768066 871.258789,648.949707 
	C871.258789,671.273743 871.258789,693.000549 871.258789,714.783997 
	C886.008240,715.773315 899.898071,715.357605 907.980835,699.205200 
z"/>
<path fill="#FFFFFF" opacity="1.000000" stroke="none" 
	d="
M699.000000,654.000000 
	C699.000000,645.524780 699.000000,637.549561 699.000000,629.287842 
	C706.613770,629.287842 714.018921,629.287842 721.776733,629.287842 
	C721.847961,630.633545 721.989136,632.069336 721.990173,633.505188 
	C722.004639,653.664124 722.411621,673.833740 721.887146,693.979004 
	C721.334229,715.217773 738.762451,719.912903 753.109314,713.701538 
	C759.118469,711.099915 761.954468,704.756775 761.975891,697.901978 
	C762.041931,676.743652 762.000000,655.585022 762.000000,634.426514 
	C762.000000,632.786804 762.000000,631.147095 762.000000,629.259277 
	C769.674500,629.259277 777.077942,629.259277 785.000000,629.259277 
	C785.000000,630.874756 785.000000,632.480286 785.000000,634.085815 
	C785.000000,656.077332 784.953430,678.069031 785.015015,700.060364 
	C785.062805,717.133911 771.942322,731.391785 755.182068,733.975403 
	C745.101807,735.529236 735.100037,735.898132 725.024231,733.117615 
	C711.397522,729.357300 703.219604,720.712708 700.059631,707.169739 
	C699.326904,704.029541 699.069397,700.718750 699.045654,697.483154 
	C698.940369,683.156067 699.000000,668.827820 699.000000,654.000000 
z"/>
<path fill="#FFFFFF" opacity="1.000000" stroke="none" 
	d="
M519.007690,641.905396 
	C517.424011,645.815002 515.878357,649.323669 514.327515,652.844116 
	C508.189453,651.014526 502.030396,648.556091 495.639069,647.490295 
	C491.305603,646.767700 485.734650,646.530945 482.313171,648.651733 
	C474.020233,653.792114 475.438416,661.553101 483.315338,665.995667 
	C491.404968,670.558167 499.790527,674.610840 507.763428,679.361816 
	C519.270752,686.218689 523.865417,696.947754 521.825684,709.821106 
	C519.693726,723.276550 511.615997,731.090881 496.958435,733.894409 
	C483.306946,736.505432 469.674591,735.798645 456.487183,730.818237 
	C454.175079,729.945068 452.772888,728.696167 452.916443,725.757446 
	C453.199860,719.955688 453.000031,714.130249 453.000031,707.731750 
	C459.536926,710.030579 465.513733,712.965271 471.816589,714.119507 
	C478.378876,715.321228 485.259369,715.043030 491.993988,714.946106 
	C495.812408,714.891113 498.290222,712.242493 498.927032,708.538269 
	C499.695099,704.070374 498.844879,699.741150 494.612183,697.307739 
	C488.773315,693.951050 482.642761,691.105408 476.680725,687.958252 
	C469.898315,684.377991 463.475830,680.464539 459.136536,673.708862 
	C448.561188,657.244385 455.807068,633.429565 476.770294,629.092224 
	C490.621307,626.226501 504.317108,627.597290 517.483032,633.068542 
	C518.503662,633.492676 519.517456,633.933167 521.305481,634.694336 
	C520.600525,636.818909 519.823120,639.161621 519.007690,641.905396 
z"/>
<path fill="#FFFFFF" opacity="1.000000" stroke="none" 
	d="
M619.000000,711.000000 
	C619.000000,718.809570 619.000000,726.119080 619.000000,733.713318 
	C611.383179,733.713318 603.977478,733.713318 596.175964,733.713318 
	C596.175964,705.378540 596.175964,676.976562 596.175964,648.178101 
	C586.388123,648.178101 576.977722,648.178101 567.286621,648.178101 
	C567.286621,641.714722 567.286621,635.643066 567.286621,629.283936 
	C593.623291,629.283936 620.023865,629.283936 646.712708,629.283936 
	C646.712708,635.283752 646.712708,641.354675 646.712708,647.829102 
	C637.713989,647.829102 628.637268,647.829102 619.000000,647.829102 
	C619.000000,668.981628 619.000000,689.740784 619.000000,711.000000 
z"/>
<path fill="#FFFFFF" opacity="1.000000" stroke="none" 
	d="
M1023.401733,716.146118 
	C1027.095215,717.975220 1030.385742,719.673950 1033.822632,721.448303 
	C1033.822632,725.368408 1033.822632,729.468628 1033.822632,733.783203 
	C1017.589417,733.783203 1001.532471,733.783203 985.139221,733.783203 
	C985.089966,732.923950 985.129211,732.127747 984.987305,731.365234 
	C983.616577,723.998474 985.905029,718.827942 993.666199,717.056213 
	C997.484741,716.184570 998.098511,713.723389 998.069397,710.197937 
	C997.919617,692.059021 997.780640,673.913879 998.134521,655.780640 
	C998.239807,650.383545 996.895874,646.983704 991.463806,645.907410 
	C985.590149,644.743469 984.145386,640.963623 984.962158,635.585938 
	C985.207458,633.970764 985.000000,632.286865 985.000000,630.317505 
	C1001.196228,630.317505 1017.255127,630.317505 1033.657715,630.317505 
	C1033.657715,634.170532 1033.657715,638.238342 1033.657715,642.515381 
	C1033.657349,642.515686 1033.468140,642.821838 1033.214111,642.891663 
	C1023.025330,645.694519 1020.009766,652.070374 1020.712524,662.653320 
	C1021.801758,679.056946 1020.954346,695.586426 1021.086487,712.061340 
	C1021.097168,713.384521 1022.332397,714.697876 1023.401733,716.146118 
z"/>
</svg>